<?xml version="1.0" encoding="UTF-8"?>
<!DOCTYPE svg PUBLIC "-//W3C//DTD SVG 1.1//EN" "http://www.w3.org/Graphics/SVG/1.1/DTD/svg11.dtd">
<!-- Creator: CorelDRAW 2017 -->
<svg xmlns="http://www.w3.org/2000/svg" xml:space="preserve" width="1833px" height="290px" version="1.1" style="shape-rendering:geometricPrecision; text-rendering:geometricPrecision; image-rendering:optimizeQuality; fill-rule:evenodd; clip-rule:evenodd"
viewBox="0 0 4430.2 701.1"
 xmlns:xlink="http://www.w3.org/1999/xlink">
 <defs>
  <style type="text/css">
   <![CDATA[
    .str0 {stroke:#666666;stroke-width:8.6;stroke-miterlimit:22.9256}
    .fil0 {fill:url(#id0)}
   ]]>
  </style>
  <linearGradient id="id0" gradientUnits="userSpaceOnUse" x1="4.3" y1="350.5" x2="4425.9" y2="350.5">
   <stop offset="0" style="stop-opacity:1; stop-color:#16c8e9"/>
   <stop offset="1" style="stop-opacity:1; stop-color:#BA3BFF"/>
  </linearGradient>
 </defs>
 <g id="Ebene_x0020_1">
  <metadata id="CorelCorpID_0Corel-Layer"/>
  <path class="fil0 str0" d="M4305.5 4.3c73.1,85.4 120.4,200.1 120.4,344.8 0,142.6 -45.5,257.1 -116.3,342.8l-4.1 4.9 -85.3 0c73.1,-92.2 121.1,-212.8 121.1,-347.7 0,-129.4 -46.1,-249.3 -116.9,-339.4l-4.2 -5.4 85.3 0zm-220 0c-73.1,91.4 -121.1,212.8 -121.1,347.7 0,129.4 46.1,249.3 116.9,339.4l4.2 5.4 -85.3 0c-73.1,-85.4 -120.4,-200.1 -120.4,-344.8 0,-143.3 45.5,-257.2 116.3,-342.8l4.1 -4.9 85.3 0zm-523.9 200.3c103.6,0 171.7,53.4 171.7,158l0 0 0 82.5 -234.5 0 0 21.4c0,33.6 21.2,55 62,55 41.6,0 56,-18.4 62.1,-42l0 0 109.7 0c-9.9,92.4 -73.4,137.4 -171.8,137.4 -102.1,0 -171.7,-52.7 -171.7,-158l0 0 0 -96.3c0,-104.6 68.1,-158 172.5,-158zm-2991.4 7.6c95.3,0 158.9,49.7 158.9,145.9l0 0 0 73.3 -260.3 0 0 42c0,57.2 36.3,92.4 102.1,92.4 63.6,0 96.1,-32.1 99.1,-77.2l0 0 58.3 0c-4.5,81.7 -62.8,128.3 -157.4,128.3 -98.3,0 -160.3,-51.9 -160.3,-147.4l0 0 0 -111.4c0,-96.2 62.7,-145.9 159.6,-145.9zm988 0c95.4,0 158.9,49.7 158.9,145.9l0 0 0 73.3 -260.2 0 0 42c0,57.2 36.3,92.4 102.1,92.4 63.5,0 96.1,-32.1 99.1,-77.2l0 0 58.3 0c-4.6,81.7 -62.8,128.3 -157.4,128.3 -98.4,0 -160.4,-51.9 -160.4,-147.4l0 0 0 -111.4c0,-96.2 62.8,-145.9 159.6,-145.9zm720.3 -145.1c127.1,0 210.3,65.7 210.3,194l0 0 0 4.6 -117.3 0 0 -4.6c0,-60.3 -37,-90.9 -93,-90.9 -57.5,0 -94.6,30.6 -94.6,90.9l0 0 0 161.9c0,60.3 37.1,90.8 93.1,90.8 57.5,0 94.5,-30.5 94.5,-90.8l0 0 0 -4.6 117.3 0 0 4.6c0,128.2 -83.2,193.9 -211.8,193.9 -127.1,0 -210.4,-65.7 -210.4,-193.9l0 0 0 -161.9c0,-128.3 83.3,-194 211.9,-194zm447.1 137.5c103.7,0 171.7,53.4 171.7,158l0 0 0 96.3c0,104.6 -68,158 -172.5,158 -103.6,0 -171.7,-53.4 -171.7,-158l0 0 0 -96.3c0,-104.6 68.1,-158 172.5,-158zm584.1 -160.4l0 565.1 -83.3 0 -15.8 -38.2c-24.3,30.5 -61.3,45.8 -106,45.8 -84.7,0 -139.2,-53.4 -139.2,-158l0 0 0 -96.3c0,-104.6 54.5,-158 138.5,-158 39.3,0 71.9,11.4 96.1,34.3l0 0 0 -194.7 109.7 0zm-3246.4 0l0 216.9c25.7,-32.1 65.8,-48.9 115,-48.9 88.5,0 144.5,51.2 144.5,145.9l0 0 0 112.2c0,94.7 -56,146.6 -144.5,146.6 -53,0 -95.3,-18.3 -121.1,-53.4l0 0 -7.5 45.8 -45.4 0 0 -543 59 -22.1zm843.5 28.3l0 147.4 118.8 0 0 51.1 -118.8 0 0.1 204.7c0.6,75.5 20.5,97.5 118.7,84.7l0 0 0 48.9c-152.8,25.9 -177.8,-33.6 -177.8,-142.8l0 0 0 -195.5 -75.6 0 0 -51.1 75.6 0 0 -129.9 59 -17.5zm298.9 0l0 147.4 118.8 0 0 51.1 -118.8 0 0 204.7c0.6,75.5 20.5,97.5 118.8,84.7l0 0 0 48.9c-152.9,25.9 -177.8,-33.6 -177.8,-142.8l0 -195.5 -75.7 0 0 -51.1 75.7 0 0 -129.9 59 -17.5zm661.2 196.2c34.1,-45.8 96.1,-64.9 154.4,-51.1l0 0 0 53.4c-90.8,-16.8 -149.1,20.6 -149.1,83.2l0 0 0 255.1 -59 0 0 -389.4 45.4 0 8.3 48.8zm-1700.7 -5.3c-62.8,0 -102.9,34.3 -102.9,94.7l0 0 0 112.2c0,61.1 40.1,95.5 102.1,95.5 61.3,0 99.1,-32.9 99.1,-91.7l0 0 0 -119.9c0,-58.8 -37.8,-90.8 -98.3,-90.8zm2559.4 36.6c-37.8,0 -62.8,17.6 -62.8,55l0 0 0 111.5c0,37.4 25,55 62,55 38.6,0 62.8,-17.6 62.8,-55l0 0 0 -111.5c0,-37.4 -24.2,-55 -62,-55zm411.6 0c-37.9,0 -62.1,17.6 -62.1,55l0 0 0 111.5c0,37.4 24.2,55 62.8,55 37.1,0 62.1,-17.6 62.1,-55l0 0 0 -111.5c0,-37.4 -25,-55 -62.8,-55zm-2567 -36.6c-61.3,0 -101.4,30.5 -101.4,90.8l0 0 0 29.8 201.2 0 0 -29.8c0,-60.3 -39.3,-90.8 -99.8,-90.8zm988 0c-61.2,0 -101.3,30.5 -101.3,90.8l0 0 0 29.8 201.2 0 0 -29.8c0,-60.3 -39.3,-90.8 -99.9,-90.8zm2003.4 36.6c-37.8,0 -62.8,17.6 -62.8,55l0 0 0 9.9 124.8 0 0 -9.9c0,-37.4 -24.2,-55 -62,-55z"/>
 </g>
</svg>
