<?xml version="1.0" encoding="utf-8"?>
<!-- Generator: Adobe Illustrator 23.0.4, SVG Export Plug-In . SVG Version: 6.00 Build 0)  -->
<svg version="1.1" id="Ebene_1" xmlns="http://www.w3.org/2000/svg" xmlns:xlink="http://www.w3.org/1999/xlink" x="0px" y="0px"
	 viewBox="0 0 307.539 59.736" style="enable-background:new 0 0 307.539 59.736;" xml:space="preserve">
<style type="text/css">
	.st0{fill-rule:evenodd;clip-rule:evenodd;fill:#FD1813;}
	.st1{fill:#FD1813;}
</style>
<g>
	<g>
		<path class="st0" d="M45.194,22.879c0-0.627-0.878-1.128-1.88-1.128c-6.206,0-12.787,9.653-12.787,15.169
			c0,2.131,0.439,3.009,2.257,3.009C36.544,39.866,45.194,24.822,45.194,22.879L45.194,22.879z M23.568,40.179
			c0-9.465,13.101-23.067,22.315-23.067c0.878,0,1.692,0.251,2.57,0.313c0.313-0.376,0.564-0.815,0.878-1.191
			c0.313-0.439,0.627-0.878,1.066-1.191c0.251-0.188,0.627-0.313,1.003-0.313c0.376-0.063,0.815-0.063,1.254-0.063
			c0.815,0,1.755,0.125,2.257,0.564c-0.815,2.57-2.821,7.522-4.701,12.223c-1.88,4.701-3.448,9.089-3.448,10.468
			c0,1.191,0.439,1.692,0.878,1.692c0.627,0,1.442-0.752,2.319-1.755c0.878-1.003,1.63-2.131,2.131-2.633l1.943,1.379
			c-0.627,0.878-1.254,1.818-2.006,2.821c-0.752,1.003-1.63,2.069-2.57,3.071c-1.818,1.943-4.012,3.636-6.017,3.636
			c-2.194,0-3.636-1.254-3.636-3.573c0-1.316,0.564-3.385,1.191-5.391c0.376-1.191,0.815-2.445,1.191-3.448
			c-2.883,4.701-8.901,12.411-14.041,12.411C24.571,46.071,23.568,43.627,23.568,40.179L23.568,40.179z"/>
		<path class="st0" d="M104.867,22.879c0-0.627-0.878-1.128-1.88-1.128c-6.206,0-12.787,9.653-12.787,15.169
			c0,2.131,0.439,3.009,2.257,3.009C96.154,39.866,104.867,24.822,104.867,22.879L104.867,22.879z M83.179,40.179
			c0-9.465,13.101-23.067,22.315-23.067c0.878,0,1.692,0.251,2.57,0.313c0.313-0.376,0.564-0.815,0.878-1.191
			c0.313-0.439,0.627-0.878,1.066-1.191c0.251-0.188,0.627-0.313,1.003-0.313c0.376-0.063,0.815-0.063,1.254-0.063
			c0.815,0,1.755,0.125,2.257,0.564c-0.815,2.57-2.821,7.522-4.701,12.223s-3.448,9.089-3.448,10.468
			c0,1.191,0.439,1.692,0.878,1.692c0.627,0,1.442-0.752,2.319-1.755c0.878-1.003,1.63-2.131,2.131-2.633l1.943,1.379
			c-0.627,0.878-1.254,1.818-2.006,2.821c-0.752,1.003-1.63,2.069-2.57,3.071c-1.818,1.943-4.012,3.636-6.017,3.636
			c-2.194,0-3.636-1.254-3.636-3.573c0-1.316,0.564-3.385,1.191-5.391c0.376-1.191,0.815-2.445,1.191-3.448
			c-2.883,4.701-8.901,12.411-14.041,12.411C84.244,46.071,83.179,43.627,83.179,40.179L83.179,40.179z"/>
		<path class="st1" d="M20.998,5.077c0-1.442-0.689-2.006-5.328-2.006c-0.501,0-0.564-0.376-0.564-0.627
			c0-0.125,0.125-0.689,0.313-1.254c0.063-0.251,0.188-0.564,0.376-0.752C15.921,0.251,16.109,0,16.423,0
			c3.761,0,6.958,0.313,10.154,0.313C29.837,0.313,32.72,0,35.415,0c0.251,0,0.564,0.125,0.564,0.501
			c0,0.313-0.125,0.878-0.251,1.379c-0.063,0.251-0.188,0.501-0.251,0.689c-0.063,0.125-0.125,0.188-0.188,0.251
			c-0.063,0.063-0.188,0.125-0.313,0.125c-3.636,0.063-4.638,0.313-5.516,3.698L23.756,28.52c-0.815,3.071-1.818,7.522-3.071,11.91
			s-2.758,8.65-4.513,11.22c-3.322,4.889-7.146,6.331-10.468,6.331C3.071,57.981,0,57.041,0,53.718c0-2.821,1.003-4.638,4.137-4.638
			c2.633,0,3.134,1.254,3.322,2.507c0.063,0.313,0.063,0.564,0.125,0.878c0.063,0.251,0.125,0.501,0.188,0.69
			c0.188,0.313,0.439,0.564,1.128,0.564c1.254,0,1.692-1.003,2.069-3.51c0.313-2.445,0.564-5.955,1.692-10.468l5.955-23.067
			c0.188-0.878,0.501-2.006,0.815-3.197c0.188-0.689,0.376-1.442,0.564-2.131C20.434,8.838,20.998,6.331,20.998,5.077L20.998,5.077z
			"/>
		<path class="st1" d="M62.243,29.022c1.63-2.821,3.51-5.453,4.952-7.585h-7.271c-1.567,0-2.319,0.564-2.695,1.128
			c-0.376,0.564-0.376,1.254-0.376,1.63c0,0.188,0.063,0.313,0.251,0.501c0.125,0.063,0.188,0.125,0.376,0.251
			c0.125,0.063,0.313,0.188,0.439,0.251c0.627,0.376,1.316,1.003,1.316,2.382c0,1.63-1.316,3.197-3.009,3.197
			c-2.131,0-3.134-1.316-3.134-3.322c0-3.197,4.262-11.847,8.149-11.847c2.57,0,5.14,0.376,7.773,0.376
			c1.066,0,2.131-0.313,3.322-0.376c0.125,0,0.251,0,0.376,0c0.188,0,0.313,0.063,0.501,0.063c0.313,0.063,0.752,0.313,0.752,0.815
			c0,0.188-0.188,0.501-0.439,0.752c-0.251,0.313-0.564,0.815-1.003,1.379c-0.815,1.128-1.943,2.633-3.009,4.325
			c-2.194,3.448-4.388,7.71-4.388,11.22c0,3.134,1.567,5.767,4.826,5.767c6.206,0,11.847-8.274,11.847-14.041
			c0-2.006-0.69-2.821-1.442-3.448c-0.188-0.188-0.376-0.313-0.564-0.501c-0.188-0.188-0.376-0.313-0.501-0.501
			c-0.313-0.376-0.501-0.878-0.501-1.504c0-1.818,0.752-4.388,3.949-4.388c3.259,0,4.137,3.009,4.137,5.579
			c0,8.713-9.277,25.01-19.055,25.01c-5.265,0-8.525-2.758-8.525-7.961C59.172,35.165,60.551,31.968,62.243,29.022L62.243,29.022z"
			/>
		<polygon class="st1" points="116.275,14.417 116.588,14.417 116.588,12.223 117.403,12.223 117.403,11.972 115.46,11.972 
			115.46,12.223 116.275,12.223 		"/>
		<polygon class="st1" points="117.717,14.417 118.03,14.417 118.03,12.411 118.03,12.411 118.782,14.417 119.033,14.417 
			119.785,12.411 119.785,12.411 119.785,14.417 120.098,14.417 120.098,11.972 119.66,11.972 118.908,14.041 118.155,11.972 
			117.717,11.972 		"/>
	</g>
	<g>
		<path d="M161.155,24.321l-6.582,21.124h-7.083l5.453-17.676c0.251-0.752,0.501-1.755,0.627-2.319
			c0.188-1.254-0.063-1.818-0.94-1.818c-1.379,0-3.322,1.128-5.641,3.259c-3.698,3.448-5.328,6.143-7.083,11.659l-2.131,6.895
			h-7.083l5.516-17.676c0.251-0.752,0.439-1.755,0.564-2.319c0.188-1.254-0.063-1.818-0.878-1.818c-1.442,0-3.385,1.128-5.704,3.259
			c-1.442,1.379-3.071,3.134-3.824,4.325c-0.439,0.627-0.878,1.504-1.379,2.507c-0.815,1.692-1.003,2.194-1.818,4.827l-2.131,6.895
			h-7.208l8.525-27.267l7.334-0.752l-2.758,7.71c4.576-5.516,8.775-8.086,13.226-8.086c3.573,0,5.203,1.755,4.638,5.14
			c-0.063,0.439-0.251,1.191-0.439,2.131c4.576-5.077,8.399-7.271,12.599-7.271c3.824,0,5.203,1.692,4.576,5.767
			C161.406,23.318,161.281,23.882,161.155,24.321z"/>
		<path d="M181.589,45.444h-6.331l2.507-7.835c-2.821,3.259-4.074,4.45-6.644,6.143c-2.382,1.63-4.827,2.507-6.77,2.507
			c-3.197,0-4.889-3.636-4.074-8.713c1.191-7.647,5.641-14.73,11.471-18.24c2.695-1.567,5.015-2.131,8.901-2.131
			c2.57,0,4.137,0.188,9.528,1.066L181.589,45.444z M179.396,22.064c-4.889,0-10.154,6.331-11.283,13.414
			c-0.376,2.507,0,4.012,1.191,4.012c1.066,0,3.197-1.567,5.328-3.824c2.821-3.009,4.889-6.331,5.829-9.465l1.191-3.886
			C180.649,22.127,180.21,22.064,179.396,22.064z"/>
		<path d="M217.13,22.628h-4.074c0.439,1.379,0.501,2.069,0.251,3.573c-1.066,6.707-7.208,12.035-13.727,12.035
			c-1.003,0-1.567-0.063-3.009-0.313c-1.254,1.191-2.319,2.57-2.382,3.071c-0.063,0.251,0.063,0.501,0.251,0.627
			c0.313,0.313,0.501,0.376,2.758,0.376h7.083c4.576,0,6.958,2.507,6.331,6.582c-0.94,5.955-9.026,11.157-17.426,11.157
			c-6.08,0-10.405-2.883-9.841-6.456c0.376-2.507,2.695-4.889,6.895-7.208c-2.507-0.251-3.573-1.191-3.322-2.883
			c0.251-1.567,1.818-3.322,6.017-6.832c-1.128-1.128-1.567-1.755-1.943-2.382c-0.689-1.254-0.878-2.883-0.627-4.764
			c1.128-7.083,7.396-12.474,14.48-12.474c1.755,0,2.758,0.188,4.827,0.878h5.203l4.2-0.376L217.13,22.628z M199.579,47.262h-4.513
			c-2.194,1.755-3.886,3.886-4.074,4.952c-0.188,1.316,1.63,2.257,4.2,2.257c1.755,0,4.012-0.69,5.641-1.818
			c1.191-0.815,2.257-2.194,2.382-3.134C203.528,47.889,202.525,47.262,199.579,47.262z M203.779,21.563
			c-1.128,0-2.319,0.689-3.573,2.194c-1.316,1.567-2.194,3.259-2.445,5.14c-0.439,2.633,0.501,4.45,2.131,4.45
			c1.128,0,2.57-0.878,3.761-2.257c1.191-1.442,2.006-3.197,2.257-4.889C206.349,23.443,205.534,21.563,203.779,21.563z"/>
		<path d="M235.37,45.444h-6.331l2.507-7.835c-2.821,3.259-4.074,4.45-6.644,6.143c-2.382,1.63-4.827,2.507-6.77,2.507
			c-3.197,0-4.889-3.636-4.074-8.713c1.191-7.647,5.641-14.73,11.471-18.24c2.695-1.567,5.015-2.131,8.901-2.131
			c2.57,0,4.137,0.188,9.528,1.066L235.37,45.444z M233.177,22.064c-4.889,0-10.154,6.331-11.283,13.414
			c-0.376,2.507,0,4.012,1.191,4.012c1.066,0,3.197-1.567,5.328-3.824c2.821-3.009,4.889-6.331,5.829-9.465l1.191-3.886
			C234.43,22.127,233.991,22.064,233.177,22.064z"/>
		<path d="M267.401,21.625l-17.238,18.052h13.101l-1.818,5.767h-22.377l1.191-3.886l17.238-17.99h-12.035l1.818-5.767h21.312
			L267.401,21.625z"/>
		<path d="M271.162,45.444h-7.083l8.525-27.267l7.334-0.752L271.162,45.444z M282.57,8.462c-0.752,2.257-2.946,3.886-5.077,3.886
			c-1.692,0-2.758-1.88-2.382-4.2c0.063-0.251,0.125-0.501,0.251-0.69c0.815-2.257,2.946-3.886,5.077-3.886
			c1.692,0,2.633,1.943,2.257,4.325C282.695,8.086,282.695,8.211,282.57,8.462z"/>
		<path d="M306.953,24.321l-6.582,21.124h-7.083l5.516-17.676c0.251-0.752,0.439-1.755,0.564-2.319
			c0.188-1.254-0.063-1.818-0.878-1.818c-1.442,0-3.385,1.128-5.704,3.259c-1.442,1.379-3.071,3.134-3.824,4.325
			c-0.439,0.627-0.878,1.504-1.379,2.507c-0.815,1.692-1.003,2.194-1.818,4.827l-2.131,6.895h-7.083l8.399-27.267l7.334-0.752
			l-2.758,7.71c4.576-5.516,8.775-8.086,13.226-8.086c3.824,0,5.203,1.692,4.576,5.767
			C307.204,23.318,307.079,23.882,306.953,24.321z"/>
	</g>
</g>
</svg>
